<?xml version="1.0" standalone="no"?>
<!DOCTYPE svg PUBLIC "-//W3C//DTD SVG 20010904//EN"
 "http://www.w3.org/TR/2001/REC-SVG-20010904/DTD/svg10.dtd">
<svg version="1.0" xmlns="http://www.w3.org/2000/svg"
 width="200.000000pt" height="200.000000pt" viewBox="0 0 200.000000 200.000000"
 preserveAspectRatio="xMidYMid meet">

<g transform="translate(0.000000,200.000000) scale(0.100000,-0.100000)"
fill="#000000" stroke="none">
<path d="M624 1297 c-3 -8 -3 -56 -2 -108 l3 -94 65 -3 c85 -3 114 12 118 59
2 22 -3 42 -11 51 -9 8 -12 26 -10 44 7 48 -16 64 -93 64 -44 0 -66 -4 -70
-13z m106 -52 c0 -8 -9 -15 -20 -15 -11 0 -20 7 -20 15 0 8 9 15 20 15 11 0
20 -7 20 -15z m10 -85 c0 -15 -7 -20 -25 -20 -18 0 -25 5 -25 20 0 15 7 20 25
20 18 0 25 -5 25 -20z"/>
<path d="M844 1297 c-3 -8 -3 -56 -2 -108 l3 -94 85 0 85 0 3 58 3 58 -33 -3
c-28 -2 -34 -7 -36 -30 -2 -20 -9 -28 -23 -28 -17 0 -19 8 -19 80 l0 80 -30 0
c-17 0 -33 -6 -36 -13z"/>
<path d="M1067 1292 c-13 -14 -17 -37 -17 -88 0 -97 10 -109 94 -109 39 0 70
5 78 13 7 7 14 45 16 86 4 65 1 77 -17 95 -29 29 -129 30 -154 3z m101 -90 c3
-50 2 -52 -22 -52 -24 0 -26 3 -26 48 0 53 6 64 30 60 11 -2 16 -18 18 -56z"/>
<path d="M1294 1296 c-16 -12 -19 -27 -19 -90 0 -97 9 -107 104 -114 l71 -5 0
62 0 61 -30 0 c-27 0 -30 -3 -30 -30 0 -25 -4 -30 -25 -30 -23 0 -25 3 -25 50
l0 50 45 0 c43 0 45 1 45 30 0 30 0 30 -58 30 -34 0 -66 -6 -78 -14z"/>
<path d="M1492 1203 l3 -108 30 0 c27 0 30 4 33 33 3 26 8 32 27 32 19 0 24
-6 27 -32 3 -29 6 -33 33 -33 28 0 30 3 33 43 2 25 -2 50 -9 59 -7 8 -12 32
-10 53 3 49 -15 60 -104 60 l-66 0 3 -107z m106 34 c2 -12 -3 -17 -17 -17 -15
0 -21 6 -21 21 0 25 33 22 38 -4z"/>
<path d="M1714 1295 c-4 -8 2 -32 13 -52 18 -37 18 -39 1 -73 -26 -50 -20 -75
17 -75 25 0 31 4 33 27 4 31 28 56 42 42 4 -5 10 -22 12 -39 3 -26 7 -30 33
-30 26 0 30 4 33 29 2 17 -4 39 -16 56 -19 26 -19 27 -1 51 10 13 19 37 19 52
0 26 -3 28 -32 25 -24 -2 -34 -9 -36 -23 -3 -11 -9 -26 -14 -33 -15 -17 -38 3
-38 34 0 20 -5 24 -30 24 -18 0 -33 -6 -36 -15z"/>
<path d="M100 1033 l0 -238 59 -52 59 -53 167 0 167 0 29 29 29 29 0 201 0
200 -30 16 c-16 9 -30 20 -30 25 0 6 -10 15 -23 21 -13 6 -27 20 -32 32 -10
21 -15 22 -202 25 l-193 2 0 -237z m368 209 c9 -7 12 -56 10 -213 l-3 -204
-172 -3 -173 -2 0 215 0 215 163 0 c89 0 168 -4 175 -8z m62 -251 c0 -249 15
-231 -195 -231 -109 1 -155 4 -168 14 -9 7 -17 16 -17 19 0 4 78 8 173 9 l172
3 3 193 c2 161 5 192 17 192 13 0 15 -30 15 -199z m58 -45 l2 -186 -24 -25
c-25 -24 -29 -25 -179 -25 -125 0 -157 3 -167 15 -11 13 4 15 128 15 157 0
186 8 202 53 5 16 10 102 10 189 0 123 3 159 13 156 9 -4 13 -53 15 -192z"/>
</g>
</svg>
